<?xml version="1.0" encoding="iso-8859-1"?>
<!-- Generator: Adobe Illustrator 19.0.0, SVG Export Plug-In . SVG Version: 6.00 Build 0)  -->
<svg version="1.1" id="Capa_1" xmlns="http://www.w3.org/2000/svg" xmlns:xlink="http://www.w3.org/1999/xlink" x="0px" y="0px"
	 viewBox="0 0 391.757 391.757" style="enable-background:new 0 0 391.757 391.757;" xml:space="preserve">
<g>
	<path d="M238.729,36.727L202.001,0l-36.727,36.727l-24.05,122.449l9.133,15.823l23.787-121.09c0.563-2.871,3.079-4.94,6.005-4.94
		h43.705c2.926,0,5.442,2.069,6.005,4.94l44.256,225.303c1.487,7.566-4.303,14.605-12.01,14.605h-55.581
		c-0.024-0.043-0.018-0.086-0.043-0.129l-25.966-44.299l1.004-0.582c2.43-1.408,3.599-4.285,2.822-6.984l-5.625-19.674
		l-10.584,6.115L97.114,107.113c-1.683-2.914-5.442-3.924-8.362-2.24c-2.914,1.683-3.924,5.448-2.24,8.362l71.018,121.151
		l-10.62,6.127l14.22,14.709c1.953,2.02,5.032,2.448,7.462,1.047l1.322-0.759l22.453,38.307h-50.469
		c-7.707,0-13.497-7.039-12.01-14.599l9.702-49.41l-9.133-15.823l-32.516,165.53h12.242c0,6.764,5.478,12.242,12.242,12.242
		c6.764,0,12.242-5.478,12.242-12.242h134.667c0,6.764,5.478,12.242,12.242,12.242s12.242-5.478,12.242-12.242h12.242
		L238.729,36.727z"/>
</g>
<g>
</g>
<g>
</g>
<g>
</g>
<g>
</g>
<g>
</g>
<g>
</g>
<g>
</g>
<g>
</g>
<g>
</g>
<g>
</g>
<g>
</g>
<g>
</g>
<g>
</g>
<g>
</g>
<g>
</g>
</svg>
